#!OML:ASF E:\emotionWalksFemale\Project 1\Capture day 1\Session 1\Female1.ASF
:FULLY-SPECIFIED
:DEGREES
435
root 8.72581 15.4457 18.5817 355.219 -4.23217 -359.787
lowerback 9.95883 -0.449136 1.07209
upperback -5.19434 -0.376458 0.690693
thorax -11.2203 -0.228966 0.216657
lowerneck -9.94501 -1.09966 -4.68492
upperneck 12.4636 -1.53495 5.4951
head 5.46515 -0.585257 2.37606
rclavicle -4.12478e-015 1.19271e-014
rhumerus -51.7649 7.93144 -72.8358
rradius 31.4344
rwrist 29.587
rhand 1.19536 -59.015
rfingers 7.12502
rthumb 26.7348 -807.146
lclavicle -4.12478e-015 1.19271e-014
lhumerus -24.4318 1.32151 82.5695
lradius 34.4072
lwrist -12.8123
lhand -5.05772 -35.9159
lfingers 7.12502
lthumb 20.7379 -7.00398
rfemur 3.67278 19.911 28.5487
rtibia 17.5248
rfoot -14.6833 -29.3585
rtoes -11.3068
lfemur -0.205146 -22.1006 -27.5341
ltibia 22.7881
lfoot -25.3151 22.9912
ltoes -8.94079
436
root 8.72726 15.4414 18.5842 355.314 -4.37974 -359.687
lowerback 9.68442 -0.431113 1.07504
upperback -5.1707 -0.359952 0.658436
thorax -11.0284 -0.222566 0.174152
lowerneck -9.95617 -1.06743 -4.60965
upperneck 12.4763 -1.49599 5.44538
head 5.46809 -0.565992 2.351
rclavicle -6.41081e-015 -1.15295e-014
rhumerus -51.5324 7.7148 -72.7186
rradius 31.5646
rwrist 29.4907
rhand 1.99019 -59.2163
rfingers 7.12502
rthumb 27.4952 -807.229
lclavicle -6.41081e-015 -1.15295e-014
lhumerus -24.3782 0.9477 82.8159
lradius 34.7949
lwrist -12.0711
lhand -4.65855 -35.554
lfingers 7.12502
lthumb 21.1215 -6.68445
rfemur 3.4975 19.9232 28.4019
rtibia 17.6083
rfoot -14.3427 -29.2481
rtoes -10.9084
lfemur -0.301883 -21.8033 -27.6329
ltibia 22.783
lfoot -24.4844 23.7002
ltoes -13.8742
437
root 8.72979 15.4375 18.5846 355.445 -4.53348 -359.724
lowerback 9.93751 -0.424993 1.13491
upperback -5.51929 -0.325851 0.746111
thorax -11.5745 -0.208431 0.234666
lowerneck -9.65273 -0.979127 -4.47037
upperneck 12.6517 -1.38285 5.21273
head 5.46265 -0.524262 2.26456
rclavicle 5.86415e-015 -1.63003e-014
rhumerus -51.8025 7.80441 -72.6316
rradius 31.6286
rwrist 29.1626
rhand 2.31726 -59.1773
rfingers 7.12502
rthumb 27.808 -807.14
lclavicle 5.86415e-015 -1.63003e-014
lhumerus -24.9958 0.432901 83.1973
lradius 35.2006
lwrist -11.4388
lhand -4.53569 -35.3955
lfingers 7.12502
lthumb 21.2395 -6.53914
rfemur 3.284 20.0144 28.3908
rtibia 17.7085
rfoot -14.1941 -29.2102
rtoes -11.1635
lfemur -0.419546 -21.4262 -27.5621
ltibia 22.7412
lfoot -23.5626 24.4292
ltoes -19.3201
438
root 8.73176 15.44 18.5842 355.586 -4.6864 -359.827
lowerback 9.16797 -0.40499 1.32258
upperback -5.17836 -0.28397 0.812981
thorax -10.7273 -0.196975 0.182764
lowerneck -9.58133 -0.986994 -4.69629
upperneck 12.0907 -1.36913 5.41194
head 5.27808 -0.516675 2.36166
rclavicle 2.33572e-014 2.78299e-015
rhumerus -50.8982 7.47521 -72.473
rradius 31.4848
rwrist 28.6512
rhand 2.32185 -58.8896
rfingers 7.12502
rthumb 27.8124 -806.851
lclavicle 2.33572e-014 2.78299e-015
lhumerus -24.3794 -0.268471 83.6112
lradius 35.3865
lwrist -10.7958
lhand -4.77021 -35.4918
lfingers 7.12502
lthumb 21.0142 -6.61031
rfemur 3.09654 20.3408 28.5045
rtibia 17.8089
rfoot -14.052 -29.3299
rtoes -11.438
lfemur -0.547521 -21.3918 -27.4154
ltibia 22.6894
lfoot -23.3826 24.7636
ltoes -20.2261
439
root 8.73442 15.4405 18.5873 355.657 -4.85709 -359.786
lowerback 9.12303 -0.405903 1.36237
upperback -5.28242 -0.278088 0.825847
thorax -10.817 -0.197111 0.17388
lowerneck -9.37502 -0.936348 -4.71195
upperneck 12.0887 -1.3058 5.40828
head 5.23908 -0.489612 2.36776
rclavicle -1.10325e-014 1.39149e-014
rhumerus -50.8336 7.3735 -72.5112
rradius 31.6012
rwrist 28.1476
rhand 2.13858 -58.7415
rfingers 7.12502
rthumb 27.6371 -806.732
lclavicle -1.10325e-014 1.39149e-014
lhumerus -24.7197 -0.894761 83.9202
lradius 35.8286
lwrist -10.3584
lhand -4.81239 -35.4046
lfingers 7.12502
lthumb 20.9737 -6.51865
rfemur 3.05754 20.613 28.4686
rtibia 17.7792
rfoot -14.0003 -29.3567
rtoes -11.3453
lfemur -0.591677 -21.4854 -27.4921
ltibia 22.7017
lfoot -23.3305 25.1206
ltoes -20.4188
440
root 8.7369 15.4392 18.5923 355.66 -5.02472 -359.802
lowerback 9.15419 -0.405327 1.48556
upperback -5.38053 -0.260157 0.807001
thorax -10.9467 -0.199207 0.0822984
lowerneck -9.24807 -0.887594 -4.56833
upperneck 12.1793 -1.25862 5.32968
head 5.24178 -0.466856 2.32343
rclavicle 1.98785e-016 2.38542e-015
rhumerus -50.8576 7.14494 -72.6201
rradius 31.7917
rwrist 27.674
rhand 1.92426 -58.826
rfingers 7.12502
rthumb 27.4322 -806.849
lclavicle 1.98785e-016 2.38542e-015
lhumerus -25.2007 -1.29379 84.1559
lradius 36.4022
lwrist -10.2157
lhand -4.63732 -35.0851
lfingers 7.12502
lthumb 21.1418 -6.21781
rfemur 3.12919 20.8109 28.5045
rtibia 17.6807
rfoot -14.0554 -29.3312
rtoes -11.1498
lfemur -0.538039 -21.652 -27.5469
ltibia 22.734
lfoot -23.5616 25.2873
ltoes -19.3739
441
root 8.73525 15.4377 18.5993 355.596 -5.13346 -359.885
lowerback 9.31822 -0.408173 1.56012
upperback -5.48962 -0.243608 0.852607
thorax -11.1687 -0.19594 0.0890422
lowerneck -9.10892 -0.854268 -4.58937
upperneck 12.2549 -1.23461 5.44712
head 5.24089 -0.449953 2.36611
rclavicle -2.27608e-014 -3.57812e-015
rhumerus -50.924 6.87186 -72.6705
rradius 32.0096
rwrist 27.2591
rhand 1.96879 -58.7042
rfingers 7.12502
rthumb 27.4747 -806.72
lclavicle -2.27608e-014 -3.57812e-015
lhumerus -25.9103 -1.11534 84.4131
lradius 37.1018
lwrist -10.8269
lhand -4.60958 -35.2225
lfingers 7.12502
lthumb 21.1685 -6.3582
rfemur 3.30061 21.1275 28.7023
rtibia 17.6118
rfoot -14.0668 -29.5545
rtoes -10.6568
lfemur -0.426844 -21.6929 -27.5168
ltibia 22.7509
lfoot -23.4579 25.4969
ltoes -19.894
442
root 8.73266 15.4373 18.6064 355.533 -5.22636 -359.937
lowerback 9.38812 -0.427268 1.55328
upperback -5.50851 -0.258868 0.945855
thorax -11.232 -0.198642 0.197388
lowerneck -9.134 -0.828121 -4.70985
upperneck 12.2967 -1.19447 5.53783
head 5.25701 -0.429336 2.41779
rclavicle 1.16289e-014 -1.03368e-014
rhumerus -50.7743 6.59964 -72.6617
rradius 32.2699
rwrist 26.9394
rhand 2.21967 -58.4632
rfingers 7.12502
rthumb 27.7147 -806.441
lclavicle 1.16289e-014 -1.03368e-014
lhumerus -26.1531 -1.89867 84.8909
lradius 37.1256
lwrist -10.5595
lhand -5.334 -35.4511
lfingers 7.12502
lthumb 20.4725 -6.51038
rfemur 3.46261 21.3171 28.854
rtibia 17.5541
rfoot -13.9579 -29.7212
rtoes -10.7132
lfemur -0.330306 -21.6517 -27.4975
ltibia 22.7715
lfoot -23.2937 25.7346
ltoes -20.9477
443
root 8.73253 15.4338 18.6103 355.487 -5.36835 -359.961
lowerback 9.31477 -0.427525 1.57086
upperback -5.40894 -0.251979 1.02581
thorax -11.0754 -0.192162 0.270679
lowerneck -9.32883 -0.814277 -4.70762
upperneck 12.2936 -1.15334 5.43094
head 5.28656 -0.41361 2.38686
rclavicle 3.18055e-015 -7.95139e-016
rhumerus -50.3431 6.20959 -72.643
rradius 32.3945
rwrist 26.6135
rhand 2.16692 -58.1875
rfingers 7.12502
rthumb 27.6642 -806.173
lclavicle 3.18055e-015 -7.95139e-016
lhumerus -26.2925 -2.4837 85.3458
lradius 37.3296
lwrist -10.3127
lhand -5.67854 -35.1529
lfingers 7.12502
lthumb 20.1413 -6.17699
rfemur 3.58598 21.435 28.9228
rtibia 17.5109
rfoot -14.3322 -29.747
rtoes -11.6745
lfemur -0.231614 -21.639 -27.5124
ltibia 22.7814
lfoot -23.4477 25.8646
ltoes -20.7973
444
root 8.73284 15.429 18.6141 355.413 -5.49598 -359.934
lowerback 9.22158 -0.408864 1.60405
upperback -5.26695 -0.225246 1.04199
thorax -10.8598 -0.179936 0.261849
lowerneck -9.5009 -0.807956 -4.65943
upperneck 12.2332 -1.1382 5.39677
head 5.29597 -0.404017 2.36891
rclavicle 1.09332e-015 3.97569e-015
rhumerus -49.8512 5.69756 -72.7028
rradius 32.4898
rwrist 26.2068
rhand 1.82359 -58.0313
rfingers 7.12502
rthumb 27.3359 -806.069
lclavicle 1.09332e-015 3.97569e-015
lhumerus -26.3999 -3.12271 85.7625
lradius 37.6084
lwrist -9.9678
lhand -5.36248 -34.7142
lfingers 7.12502
lthumb 20.4451 -5.77057
rfemur 3.70209 21.4691 28.9154
rtibia 17.5074
rfoot -14.7854 -29.7132
rtoes -12.5426
lfemur -0.089265 -21.7065 -27.606
ltibia 22.7674
lfoot -23.5954 25.9685
ltoes -20.2999
